<?xml version="1.0" encoding="UTF-8"?>
<svg version="1.1" xmlns="http://www.w3.org/2000/svg" width="729" height="559">
<path d="M0 0 C2.91102269 0.0053754 5.82189202 0.00001362 8.73291016 -0.00634766 C21.96467357 -0.01290117 34.98077323 0.0475193 47.90869141 3.19287109 C48.7881543 3.40403564 49.66761719 3.6152002 50.57373047 3.83276367 C60.01891508 6.23792814 69.0796372 9.74933048 77.78369141 14.13037109 C78.11369141 14.79037109 78.44369141 15.45037109 78.78369141 16.13037109 C75.04740448 16.28604972 72.18415083 16.23883894 68.55322266 15.25537109 C61.65901773 13.46798463 54.53420882 12.80651263 47.47119141 12.00537109 C46.68890167 11.91632507 45.90661194 11.82727905 45.10061646 11.73553467 C21.64301167 9.13187081 -2.84995664 8.27490013 -26.21630859 12.13037109 C-27.23063965 12.29698242 -28.2449707 12.46359375 -29.29003906 12.63525391 C-46.51227062 15.53357452 -63.4437237 19.27164611 -80.21630859 24.13037109 C-56.03697198 37.288943 -24.64277982 28.97752023 0.10009766 22.04052734 C32.57729669 14.0159384 68.85388696 12.94115711 98.78369141 29.13037109 C99.77369141 29.79037109 100.76369141 30.45037109 101.78369141 31.13037109 C99.4601106 45.00731199 81.74017743 59.22483601 70.78369141 67.13037109 C57.56969021 75.82326258 42.98561353 81.90340272 27.78369141 86.13037109 C26.83236328 86.40751953 25.88103516 86.68466797 24.90087891 86.97021484 C13.1814444 90.17948778 1.27138515 91.39563671 -10.84521484 91.00927734 C-12.06550888 90.97516754 -12.06550888 90.97516754 -13.31045532 90.94036865 C-16.63567186 90.8416723 -19.95832163 90.73602933 -23.28051758 90.5612793 C-36.71609732 89.89245679 -45.19313493 92.45729008 -56.21630859 100.13037109 C-57.46129529 100.96967097 -58.70673076 101.80830557 -59.95263672 102.64624023 C-66.29353329 106.98687044 -72.23075506 111.74073172 -78.15380859 116.63037109 C-90.57990924 126.85889145 -103.77781628 135.03680562 -118.21630859 142.13037109 C-119.21919922 142.62408203 -120.22208984 143.11779297 -121.25537109 143.62646484 C-127.43163616 146.41883257 -133.79223281 148.20529237 -140.34130859 149.88037109 C-141.57651245 150.19699707 -141.57651245 150.19699707 -142.83666992 150.52001953 C-151.3106527 152.57708202 -159.63868188 153.27198588 -168.34130859 153.19287109 C-169.64326172 153.18384766 -170.94521484 153.17482422 -172.28662109 153.16552734 C-173.73681641 153.148125 -173.73681641 153.148125 -175.21630859 153.13037109 C-171.93199041 149.48112866 -168.14413924 147.11559041 -163.96630859 144.63037109 C-155.28532393 139.33196327 -147.24716071 133.35628355 -139.21630859 127.13037109 C-138.01983838 126.213516 -136.82322786 125.29684396 -135.62646484 124.38037109 C-110.6533272 105.47441286 -110.6533272 105.47441286 -90.21630859 82.13037109 C-90.21630859 81.47037109 -90.21630859 80.81037109 -90.21630859 80.13037109 C-96.73987946 76.62070571 -103.37556632 74.30554199 -110.40380859 72.00537109 C-141.43267538 61.53796034 -141.43267538 61.53796034 -152.98583984 51.11474609 C-159.76489888 48.1229372 -171.04019554 54.89387058 -177.71630859 57.38037109 C-179.07239561 57.88222589 -180.42859744 58.38377054 -181.78491211 58.88500977 C-184.42724847 59.86245624 -187.06861274 60.84245402 -189.70898438 61.82519531 C-192.5422264 62.8795258 -195.37679896 63.93007377 -198.21240234 64.97802734 C-204.3188684 67.24320058 -210.37706075 69.59768046 -216.40380859 72.06787109 C-224.16943958 75.20194556 -232.0815152 77.80800051 -240.03662109 80.41552734 C-244.54039973 81.89505741 -249.00605218 83.46289792 -253.46630859 85.06787109 C-273.37654151 92.15097629 -293.55734336 98.06353827 -314.01904297 103.30664062 C-316.58527789 103.96779492 -319.14389626 104.64884912 -321.70068359 105.34521484 C-325.85430803 106.41809087 -330.00721192 107.3082819 -334.21630859 108.13037109 C-335.77865234 108.44965576 -335.77865234 108.44965576 -337.37255859 108.77539062 C-356.81249754 112.60955621 -375.9168873 113.61731578 -395.71630859 113.63037109 C-397.41442688 113.63683655 -397.41442688 113.63683655 -399.14685059 113.64343262 C-428.7121236 113.69169107 -465.5912154 109.15161527 -488.00927734 87.42333984 C-488.73759766 86.66666016 -489.46591797 85.90998047 -490.21630859 85.13037109 C-489.09740234 85.27474609 -487.97849609 85.41912109 -486.82568359 85.56787109 C-443.10578236 90.78434465 -400.66727986 84.13339199 -359.21630859 70.13037109 C-357.62109375 69.62763672 -357.62109375 69.62763672 -355.99365234 69.11474609 C-350.29658881 67.2997524 -344.88102048 65.19930932 -339.47412109 62.64990234 C-336.98013712 61.48664123 -334.48116486 60.36488722 -331.95849609 59.26708984 C-310.2522727 49.77619999 -288.22526323 39.14035881 -268.81811523 25.43701172 C-267.64043579 24.6065332 -267.64043579 24.6065332 -266.43896484 23.75927734 C-265.73779541 23.24824463 -265.03662598 22.73721191 -264.31420898 22.21069336 C-260.2017697 20.09297617 -256.39781284 21.81198072 -252.21630859 23.13037109 C-209.95579857 34.770123 -167.13479876 32.04712574 -125.31201172 20.01953125 C-120.4565897 18.62493764 -115.5881032 17.27899015 -110.71630859 15.94287109 C-109.81799316 15.69641846 -108.91967773 15.44996582 -107.99414062 15.19604492 C-99.46147074 12.88083985 -90.87624162 10.90569904 -82.21630859 9.13037109 C-81.04583984 8.88802734 -79.87537109 8.64568359 -78.66943359 8.39599609 C-69.90816602 6.67434963 -61.09195149 5.25692691 -52.27618408 3.84591675 C-50.8869718 3.62301076 -49.49808045 3.39809308 -48.10955811 3.17092896 C-32.05639037 0.55457719 -16.23442778 -0.03563187 0 0 Z " fill="#9ED2ED" transform="translate(583.21630859375,280.86962890625)"/>
<path d="M0 0 C17.48188932 -0.8787193 30.58019682 8.9441763 42.953125 20.0390625 C43.74332031 20.77640625 44.53351562 21.51375 45.34765625 22.2734375 C47.06569961 23.86716974 48.80177835 25.34115176 50.640625 26.7890625 C53.58938549 29.34465492 56.03643924 32.0561969 58.55859375 35.0234375 C60.51019495 37.29292838 62.53949492 39.47262833 64.578125 41.6640625 C88.17975739 67.83895634 107.32273637 99.20072975 124.640625 129.7265625 C125.19355225 130.70004639 125.74647949 131.67353027 126.31616211 132.67651367 C126.82928955 133.59021729 127.34241699 134.5039209 127.87109375 135.4453125 C128.32250732 136.24904297 128.7739209 137.05277344 129.23901367 137.88085938 C130.48071826 140.2798736 131.49189379 142.70357543 132.453125 145.2265625 C127.44546679 142.49511257 122.50499232 139.67470245 117.60522461 136.75537109 C93.0326376 122.15398587 68.32951359 111.34490847 40.34375 104.89453125 C37.92379582 104.33532562 35.51708316 103.74171167 33.109375 103.1328125 C-21.01634956 90.85218592 -80.92075581 121.79546028 -128.109375 145.4140625 C-128.75307037 145.73538147 -129.39676575 146.05670044 -130.05996704 146.38775635 C-138.54582304 150.62866139 -146.93417691 155.00505933 -155.234375 159.6015625 C-184.13516922 175.50528525 -217.23761804 189.40959291 -250.859375 181.7265625 C-264.0275382 177.84154541 -276.32264213 172.0122431 -288.34130859 165.45141602 C-300.36474871 158.98428392 -313.50558393 155.1014509 -326.546875 151.2265625 C-327.49949219 150.93910156 -328.45210937 150.65164063 -329.43359375 150.35546875 C-337.34981978 148.07171445 -345.42629576 146.57625476 -353.546875 145.2265625 C-354.47443604 145.05374756 -355.40199707 144.88093262 -356.35766602 144.70288086 C-367.82185066 142.77104452 -379.26361162 142.87432346 -390.859375 142.9140625 C-392.46317017 142.91629822 -392.46317017 142.91629822 -394.09936523 142.9185791 C-409.80667145 142.95800921 -425.04138958 143.55301345 -440.546875 146.2265625 C-442.65471255 146.56786303 -444.76279501 146.9076538 -446.87109375 147.24609375 C-457.54142861 148.98368101 -457.54142861 148.98368101 -468.17578125 150.92578125 C-473.98660406 151.95122057 -479.72219198 152.32359203 -485.6171875 152.34375 C-486.89625977 152.34858398 -488.17533203 152.35341797 -489.49316406 152.35839844 C-495.17822864 152.34850645 -500.86233389 152.3033966 -506.546875 152.2265625 C-506.876875 151.5665625 -507.206875 150.9065625 -507.546875 150.2265625 C-489.85791705 144.88006074 -471.94749284 140.40086717 -453.7421875 137.1796875 C-450.59919259 136.62281968 -447.50616178 136.00689921 -444.4140625 135.21484375 C-431.31462068 131.86720862 -417.87205538 129.88169209 -404.51312256 127.87271118 C-403.06277073 127.65436555 -401.61276101 127.43373215 -400.16314697 127.21054077 C-384.76571967 124.85172395 -369.4475303 124.03943037 -353.87939453 124.04125977 C-351.78267831 124.03904752 -349.68646978 124.02069473 -347.58984375 124.00195312 C-339.08552756 123.96639492 -330.91554929 124.60826588 -322.546875 126.2265625 C-321.8348291 126.36199463 -321.1227832 126.49742676 -320.38916016 126.63696289 C-305.56308685 129.70381268 -293.02376581 136.75681817 -280.86157227 145.54516602 C-273.16057232 151.09422569 -267.05914643 152.08159813 -257.546875 151.2265625 C-240.15347024 147.4472548 -229.54457184 136.29672805 -218.7578125 122.8984375 C-212.2373557 115.01859218 -204.12339813 106.09655613 -193.546875 104.2265625 C-182.78339057 103.25097179 -173.31507421 105.33292966 -164.79296875 112.171875 C-161.06660233 115.5806902 -157.52169317 119.1758893 -154.02587891 122.82006836 C-150.58487583 126.37232191 -148.5662685 127.96876759 -143.609375 128.6015625 C-126.35795433 128.27538018 -107.81507024 111.39239657 -95.921875 100.4140625 C-93.60671291 98.28167636 -91.23989303 96.2228889 -88.859375 94.1640625 C-84.70134451 90.4639969 -81.1063223 86.49640369 -77.546875 82.2265625 C-76.80953125 81.37707031 -76.0721875 80.52757812 -75.3125 79.65234375 C-64.30461161 66.80396447 -55.10854757 52.89985296 -46.53027344 38.33276367 C-42.92666303 32.26506004 -39.00535041 26.69424947 -34.546875 21.2265625 C-33.9787207 20.51274414 -33.41056641 19.79892578 -32.82519531 19.06347656 C-26.07550514 10.67488399 -16.28957844 3.33820889 -5.796875 0.4765625 C-3.8637754 0.32786253 -1.93118437 0.17179247 0 0 Z " fill="#053A88" transform="translate(521.546875,110.7734375)"/>
<path d="M0 0 C2.91102269 0.0053754 5.82189202 0.00001362 8.73291016 -0.00634766 C21.96467357 -0.01290117 34.98077323 0.0475193 47.90869141 3.19287109 C48.7881543 3.40403564 49.66761719 3.6152002 50.57373047 3.83276367 C60.01891508 6.23792814 69.0796372 9.74933048 77.78369141 14.13037109 C78.11369141 14.79037109 78.44369141 15.45037109 78.78369141 16.13037109 C75.04740448 16.28604972 72.18415083 16.23883894 68.55322266 15.25537109 C61.65901773 13.46798463 54.53420882 12.80651263 47.47119141 12.00537109 C46.68890167 11.91632507 45.90661194 11.82727905 45.10061646 11.73553467 C21.64301167 9.13187081 -2.84995664 8.27490013 -26.21630859 12.13037109 C-27.23063965 12.29698242 -28.2449707 12.46359375 -29.29003906 12.63525391 C-49.23083654 15.9910806 -68.59050128 20.48549608 -87.81787109 26.72412109 C-91.67681267 27.97206242 -95.55905986 29.10410965 -99.46630859 30.19287109 C-106.80217302 32.26239248 -114.0072269 34.66045649 -121.21630859 37.13037109 C-122.16086914 37.45166992 -123.10542969 37.77296875 -124.07861328 38.10400391 C-136.34948008 42.28107588 -148.55714626 46.56596182 -160.64648438 51.24414062 C-166.63146953 53.55245344 -172.65432449 55.72056987 -178.71630859 57.81787109 C-186.2808086 60.43654711 -193.76043609 63.21504117 -201.21630859 66.13037109 C-213.01247261 70.71088247 -224.86237048 75.12196322 -236.77880859 79.38037109 C-237.93131104 79.79246826 -239.08381348 80.20456543 -240.27124023 80.62915039 C-247.55742101 83.22036442 -254.87164718 85.71037159 -262.21630859 88.13037109 C-263.13968018 88.43813477 -264.06305176 88.74589844 -265.0144043 89.06298828 C-281.19409785 94.44157806 -297.50900912 99.07611242 -314.01904297 103.30664062 C-316.58527789 103.96779492 -319.14389626 104.64884912 -321.70068359 105.34521484 C-325.85430803 106.41809087 -330.00721192 107.3082819 -334.21630859 108.13037109 C-335.77865234 108.44965576 -335.77865234 108.44965576 -337.37255859 108.77539062 C-356.81249754 112.60955621 -375.9168873 113.61731578 -395.71630859 113.63037109 C-397.41442688 113.63683655 -397.41442688 113.63683655 -399.14685059 113.64343262 C-428.7121236 113.69169107 -465.5912154 109.15161527 -488.00927734 87.42333984 C-488.73759766 86.66666016 -489.46591797 85.90998047 -490.21630859 85.13037109 C-489.09740234 85.27474609 -487.97849609 85.41912109 -486.82568359 85.56787109 C-443.10578236 90.78434465 -400.66727986 84.13339199 -359.21630859 70.13037109 C-357.62109375 69.62763672 -357.62109375 69.62763672 -355.99365234 69.11474609 C-350.29658881 67.2997524 -344.88102048 65.19930932 -339.47412109 62.64990234 C-336.98013712 61.48664123 -334.48116486 60.36488722 -331.95849609 59.26708984 C-310.2522727 49.77619999 -288.22526323 39.14035881 -268.81811523 25.43701172 C-267.64043579 24.6065332 -267.64043579 24.6065332 -266.43896484 23.75927734 C-265.73779541 23.24824463 -265.03662598 22.73721191 -264.31420898 22.21069336 C-260.2017697 20.09297617 -256.39781284 21.81198072 -252.21630859 23.13037109 C-209.95579857 34.770123 -167.13479876 32.04712574 -125.31201172 20.01953125 C-120.4565897 18.62493764 -115.5881032 17.27899015 -110.71630859 15.94287109 C-109.81799316 15.69641846 -108.91967773 15.44996582 -107.99414062 15.19604492 C-99.46147074 12.88083985 -90.87624162 10.90569904 -82.21630859 9.13037109 C-81.04583984 8.88802734 -79.87537109 8.64568359 -78.66943359 8.39599609 C-69.90816602 6.67434963 -61.09195149 5.25692691 -52.27618408 3.84591675 C-50.8869718 3.62301076 -49.49808045 3.39809308 -48.10955811 3.17092896 C-32.05639037 0.55457719 -16.23442778 -0.03563187 0 0 Z " fill="#26ABD5" transform="translate(583.21630859375,280.86962890625)"/>
<path d="M0 0 C0.70571136 0.00093658 1.41142273 0.00187317 2.13851929 0.00283813 C44.31787082 0.12408264 83.87461118 15.58413421 114.5703125 44.72265625 C116.66342722 46.69393295 118.7788117 48.5536256 121 50.375 C127.17535575 55.63219734 132.0352542 62.17780838 137.0625 68.5 C137.79581543 69.41652344 137.79581543 69.41652344 138.54394531 70.3515625 C140.58629071 72.94803261 142.13449212 75.02847636 143.1875 78.1875 C140.41342399 76.88936008 138.09461429 75.45361978 135.7109375 73.53515625 C116.82195114 58.57629399 96.49166498 47.2282659 74.1875 38.1875 C73.2903125 37.81882812 72.393125 37.45015625 71.46875 37.0703125 C65.17696985 34.62561479 58.77761787 33.03602758 52.19995117 31.58154297 C49.14962922 30.9052739 46.23921636 30.20559725 43.28515625 29.171875 C6.16072185 17.3744507 -40.06355662 26.0975783 -76.47998047 36.27587891 C-97.23576742 41.95368905 -118.20531317 45.8303202 -139.43791199 49.15818787 C-143.11849984 49.73915908 -146.7890724 50.35543723 -150.45458984 51.02539062 C-151.59923958 51.23394684 -151.59923958 51.23394684 -152.76701355 51.44671631 C-154.21736504 51.71334381 -155.6669128 51.98439836 -157.11543274 52.26080322 C-161.0683643 52.98764164 -164.79509202 53.32022944 -168.8125 53.1875 C-159.70420919 41.22865151 -144.21335488 37.85168459 -130.45016479 33.44934082 C-117.02554374 29.1416072 -104.09373651 23.93587305 -91.16894531 18.31420898 C-83.48623286 14.99280169 -75.97908906 12.14818252 -67.86987305 10.00952148 C-64.80325013 9.18501303 -61.82311732 8.19480698 -58.8125 7.1875 C-57.45136933 6.83023809 -56.08432372 6.49429483 -54.7109375 6.1875 C-53.97963623 6.02354736 -53.24833496 5.85959473 -52.49487305 5.69067383 C-51.73343994 5.52462646 -50.97200684 5.3585791 -50.1875 5.1875 C-49.39061768 5.01307373 -48.59373535 4.83864746 -47.77270508 4.65893555 C-31.85772018 1.22068156 -16.27446295 -0.02806645 0 0 Z " fill="#27ADD3" transform="translate(541.8125,225.8125)"/>
</svg>
